<svg width="32" height="32" viewBox="0 0 32 32" fill="none" xmlns="http://www.w3.org/2000/svg">
  <rect width="32" height="32" rx="8" fill="#0d0d0d"/>
  <path d="M9 6h2.5v8.1h.08c.3-.6.76-1.08 1.36-1.44.6-.36 1.3-.54 2.1-.54 1.52 0 2.72.54 3.6 1.62.88 1.08 1.32 2.54 1.32 4.38 0 1.84-.44 3.3-1.32 4.38-.88 1.08-2.08 1.62-3.6 1.62-.8 0-1.5-.18-2.1-.54-.6-.36-1.06-.84-1.36-1.44H11V24H9V6zm5.6 15.84c.96 0 1.7-.36 2.22-1.08.52-.72.78-1.74.78-3.06s-.26-2.34-.78-3.06c-.52-.72-1.26-1.08-2.22-1.08-.96 0-1.72.36-2.26 1.08-.54.72-.82 1.74-.82 3.06s.28 2.34.82 3.06c.54.72 1.3 1.08 2.26 1.08z" fill="url(#grad)"/>
  <defs>
    <linearGradient id="grad" x1="9" y1="6" x2="20" y2="26" gradientUnits="userSpaceOnUse">
      <stop stop-color="#18E299"/>
      <stop offset="1" stop-color="#4ADE80"/>
    </linearGradient>
  </defs>
</svg>
